<svg xmlns="http://www.w3.org/2000/svg" enable-background="new 0 0 66 66" viewBox="0 0 66 66"><path d="M57.6084,50.7432c-0.1653-4.5747-5.2592-7.5146-9.3491-5.6133c-1.7471-2.4961-4.6147-4.0107-7.7007-4.0107
		c-5.4856,0-9.8075,4.6948-9.3774,10.1504c-2.5928,1.0632-4.3464,3.5814-4.4194,6.4219h-7.0035
		c-1.4097,0-2.5562-1.1465-2.5562-2.5566v-4.9473c1.2838-0.4233,2.2192-1.6204,2.2192-3.0439v-1.8517
		c1.433-1.014,2.373-2.681,2.373-4.5663v-7.4219c0-0.5527-0.4478-1-1-1h-0.5239v-3.4805c0-0.5527-0.4478-1-1-1h-6.1416
		c-0.5522,0-1,0.4473-1,1v3.4805H11.605c-0.5522,0-1,0.4473-1,1v7.4219c0,1.8881,0.9427,3.5574,2.3794,4.571v1.8469
		c0,1.4229,0.9347,2.6195,2.2178,3.0433v4.9479c0,2.5127,2.0439,4.5566,4.5562,4.5566h7.2343C27.8011,62.742,30.5814,65,33.8877,65
		h23.9834C61.8018,65,65,61.8028,65,57.8721C65,53.7964,61.5693,50.5662,57.6084,50.7432z M14.1289,29.8233h4.1416v2.4805h-4.1416
		V29.8233z M12.605,40.7256v-6.4219h0.5239h6.1416h0.5239v6.4219c0,1.9824-1.6128,3.5947-3.5947,3.5947
		S12.605,42.708,12.605,40.7256z M16.2031,48.3623c-0.6719,0-1.2188-0.5469-1.2188-1.2188v-0.9602
		c0.8338,0.1858,1.6263,0.1798,2.437-0.0016v0.9618C17.4214,47.8155,16.875,48.3623,16.2031,48.3623z M52.7725,59.416
		c-0.0041,0-0.0075,0.0022-0.0116,0.0023c-0.7769-0.0087-1.4064-0.6415-1.4064-1.4203c0-0.7842,0.6377-1.4219,1.4219-1.4219
		s1.4219,0.6377,1.4219,1.4219c0,0.7806-0.6323,1.415-1.4116,1.4209C52.7817,59.4188,52.7775,59.416,52.7725,59.416z M57.8711,63
		h-4.0986v-1.7454c1.399-0.4297,2.4258-1.7186,2.4258-3.2566c0-1.8867-1.5352-3.4219-3.4219-3.4219s-3.4219,1.5352-3.4219,3.4219
		c0,1.5352,1.0229,2.822,2.418,3.2542V63h-4.8989v-7.885c1.3973-0.4308,2.4224-1.719,2.4224-3.2556
		c0-1.8867-1.5352-3.4219-3.4219-3.4219s-3.4219,1.5352-3.4219,3.4219c0,1.5364,1.0246,2.8242,2.4214,3.2552V63h-4.9058v-3.0404
		c1.3988-0.4298,2.4253-1.7186,2.4253-3.2565c0-1.8867-1.5352-3.4219-3.4219-3.4219s-3.4219,1.5352-3.4219,3.4219
		c0,1.5353,1.0231,2.8224,2.4185,3.2544V63h-4.0801c-2.834,0-5.1396-2.3008-5.1396-5.1279c0-2.3096,1.5576-4.3467,3.7876-4.9541
		c0.4971-0.1357,0.8096-0.626,0.7231-1.1328c-0.7757-4.5432,2.7366-8.666,7.2998-8.666c2.6948,0,5.1782,1.4678,6.481,3.8301
		c0.1348,0.2441,0.3657,0.4209,0.6367,0.4873c0.2734,0.0684,0.5586,0.0176,0.791-0.1367c3.2441-2.1526,7.7386,0.6174,7.0801,4.4053
		c-0.0566,0.3252,0.0518,0.6582,0.2891,0.8887c0.5388,0.5232,0.9514,0.1445,2.0342,0.1445c2.8281,0,5.1294,2.3027,5.1294,5.1338
		C63,60.6992,60.6992,63,57.8711,63z M45.874,53.2813c-0.7842,0-1.4219-0.6377-1.4219-1.4219s0.6377-1.4219,1.4219-1.4219
		s1.4219,0.6377,1.4219,1.4219S46.6582,53.2813,45.874,53.2813z M38.9712,58.125c-0.7842,0-1.4219-0.6377-1.4219-1.4219
		s0.6377-1.4219,1.4219-1.4219s1.4219,0.6377,1.4219,1.4219S39.7554,58.125,38.9712,58.125z"/><path d="M12.5015,24.8838c0.0034,0,0.0063-0.002,0.0097-0.002h6.8868c0.0034,0,0.0063,0.002,0.0097,0.002
		s0.0063-0.002,0.0097-0.002h6.879c0.0034,0,0.0063,0.002,0.0097,0.002s0.0063-0.002,0.0097-0.002h5.8067
		c3.9307,0,7.1289-3.1982,7.1289-7.1289c0-4.0757-3.4307-7.3049-7.3916-7.1279c-0.0242-0.6697-0.162-1.324-0.3998-1.9482h15.7411
		c1.4097,0,2.5562,1.1465,2.5562,2.5566v4.9476c-1.2833,0.4236-2.2183,1.6205-2.2183,3.0436v1.8514
		c-1.4333,1.014-2.3735,2.681-2.3735,4.5665v7.4219c0,0.5527,0.4478,1,1,1h0.5244v3.4805c0,0.5527,0.4478,1,1,1h6.1416
		c0.5522,0,1-0.4473,1-1v-3.4805h0.5239c0.5522,0,1-0.4473,1-1v-7.4219c0-1.8883-0.9429-3.5579-2.3799-4.5714v-1.8466
		c0-1.4232-0.935-2.62-2.2183-3.0436v-4.9476c0-2.5127-2.0439-4.5566-4.5562-4.5566H30.222c-1.9059-2.125-5.124-2.8669-7.7113-1.665
		C20.7642,2.5147,17.897,1,14.8101,1C9.3237,1,5.0038,5.6964,5.4326,11.1514C2.7847,12.2373,1,14.8389,1,17.753
		c0,3.9307,3.2026,7.1289,7.1396,7.1289h4.3521C12.4952,24.8819,12.498,24.8838,12.5015,24.8838z M52.8315,36.5449h-4.1416v-2.4805
		h4.1416V36.5449z M54.3555,25.6426v6.4219h-0.5239h-6.1416h-0.5244v-6.4219c0-1.9824,1.6128-3.5947,3.5952-3.5947
		C52.7427,22.0479,54.3555,23.6602,54.3555,25.6426z M50.7573,18.0059c0.6719,0,1.2183,0.5469,1.2183,1.2188v0.96
		c-0.3917-0.0872-0.7973-0.1367-1.2148-0.1367c-0.42,0-0.8279,0.0503-1.2217,0.1384v-0.9617
		C49.5391,18.5528,50.0854,18.0059,50.7573,18.0059z M12.5054,18.0088c-0.7842,0-1.4219-0.6377-1.4219-1.4219
		s0.6377-1.4219,1.4219-1.4219s1.4219,0.6377,1.4219,1.4219S13.2896,18.0088,12.5054,18.0088z M19.4077,13.1651
		c-0.7842,0-1.4219-0.6377-1.4219-1.4219s0.6377-1.4219,1.4219-1.4219s1.4219,0.6377,1.4219,1.4219S20.1919,13.1651,19.4077,13.1651
		z M26.3062,19.2998c-0.004,0-0.0074,0.0022-0.0114,0.0023c-0.7767-0.0087-1.4061-0.6415-1.4061-1.4203
		c0-0.7842,0.6377-1.4219,1.4219-1.4219s1.4219,0.6377,1.4219,1.4219c0,0.7808-0.6324,1.4153-1.4119,1.4209
		C26.3154,19.3026,26.3113,19.2998,26.3062,19.2998z M11.5015,22.8819H8.1396C5.3057,22.8819,3,20.5811,3,17.753
		c0-2.3086,1.5571-4.3457,3.7871-4.9531c0.4971-0.1357,0.8096-0.626,0.7231-1.1328C6.7346,7.1241,10.2469,3,14.8101,3
		c2.6953,0,5.1787,1.4678,6.4805,3.8301c0.1348,0.2451,0.3662,0.4219,0.6372,0.4883c0.2744,0.0684,0.5591,0.0176,0.791-0.1367
		c3.3647-2.2294,7.7078,0.7944,7.0801,4.4053c-0.0566,0.3252,0.0518,0.6582,0.2891,0.8887
		c0.5364,0.5209,0.9615,0.1445,2.0342,0.1445c2.8281,0,5.1294,2.3027,5.1294,5.1328c0,2.8281-2.3008,5.1289-5.1289,5.1289h-4.8164
		v-1.7432c1.3993-0.4296,2.4263-1.7188,2.4263-3.2568c0-1.8867-1.5352-3.4219-3.4219-3.4219s-3.4219,1.5352-3.4219,3.4219
		c0,1.5349,1.0227,2.8218,2.4175,3.254v1.746h-4.8984v-7.8833c1.397-0.4309,2.4219-1.7189,2.4219-3.2554
		c0-1.8867-1.5352-3.4219-3.4219-3.4219s-3.4219,1.5352-3.4219,3.4219c0,1.5365,1.0248,2.8245,2.4219,3.2554v7.8833h-4.9063v-3.0383
		c1.399-0.4297,2.4258-1.7186,2.4258-3.2566c0-1.8867-1.5352-3.4219-3.4219-3.4219s-3.4219,1.5352-3.4219,3.4219
		c0,1.5352,1.0229,2.822,2.418,3.2542V22.8819z"/></svg>