<svg xmlns="http://www.w3.org/2000/svg" viewBox="0 0 64 64"><g data-name="Storage media-data-technology-manage"><rect width="12" height="8" x="49" y="28" fill="#ffda44"/><rect width="12" height="8" x="49" y="53" fill="#d80027"/><rect width="12" height="8" x="49" y="3" fill="#c2fb3b"/><path fill="#44ffe8" d="M35,55c0,3.31-7.16,6-16,6S3,58.31,3,55V39c0,3.31,7.16,6,16,6s16-2.69,16-6Z"/><path fill="#33bfae" d="M35,39c0,3.31-7.16,6-16,6S3,42.31,3,39V23c0,3.31,7.16,6,16,6s16-2.69,16-6Z"/><path fill="#44ffe8" d="M19,15c8.84,0,16-2.69,16-6V23c0,3.31-7.16,6-16,6S3,26.31,3,23V9C3,12.31,10.16,15,19,15Z"/><ellipse cx="19" cy="9" fill="#3cdfcb" rx="16" ry="6"/><rect width="3" height="6" x="5" y="16" fill="#82fff0" rx="1.5"/><rect width="3" height="6" x="5" y="31" fill="#77d4c9" rx="1.5"/><rect width="3" height="6" x="5" y="47" fill="#82fff0" rx="1.5"/><path fill="#d8d7da" d="M44,8h5V6H44a3,3,0,0,0-3,3V29.184A3,3,0,0,0,39.184,31H35v2h4.184A3,3,0,0,0,41,34.816V56a3,3,0,0,0,3,3h5V57H44a1,1,0,0,1-1-1V34.816A3,3,0,0,0,44.816,33H49V31H44.816A3,3,0,0,0,43,29.184V9A1,1,0,0,1,44,8ZM42,33a1,1,0,1,1,1-1A1,1,0,0,1,42,33Z"/><rect width="4" height="4" x="53" y="5" fill="#fff" rx="1"/><rect width="4" height="4" x="53" y="30" fill="#fff" rx="1"/><rect width="4" height="4" x="53" y="55" fill="#fff" rx="1"/><circle cx="42" cy="32" r="1" fill="#ff5023"/></g></svg>