<svg xmlns="http://www.w3.org/2000/svg" viewBox="0 0 512 512"><path fill-rule="evenodd" d="M256 126.642c7.299 0 14.536.267 21.706.776V67.979h.031a7.936 7.936 0 0 1 1.594-4.781l13.682-18.274A27.877 27.877 0 0 1 287.32 28c0-15.462 12.537-28 28-28 15.462 0 28 12.537 28 28s-12.537 28-28 28c-3.321 0-6.506-.578-9.462-1.64l-12.151 16.23v58.382a300.31 300.31 0 0 1 78.389 20.773V93.758h.031a7.936 7.936 0 0 1 1.594-4.781l13.575-18.132a27.9 27.9 0 0 1-7.587-19.164c0-15.462 12.537-28 28-28 15.462 0 28 12.537 28 28s-12.537 28-28 28c-2.253 0-4.444-.267-6.543-.769l-13.07 17.457v60.592a302.741 302.741 0 0 1 61.33 39.649l.678-44.995a8 8 0 0 1 4.554-7.497l19.012-9.051-.191-13.12A28.012 28.012 0 0 1 456 95.992c0-15.462 12.537-28 28-28 15.462 0 28 12.537 28 28 0 13.373-9.475 24.894-22.56 27.471l.241 16.536a7.97 7.97 0 0 1-4.542 7.29l.011.022-19.276 9.178-.955 53.96A304.135 304.135 0 0 1 504 256a304.013 304.013 0 0 1-39.174 45.639l1.045 53.871 19.279 9.179-.011.022a7.97 7.97 0 0 1 4.542 7.29l-.241 16.536c13.085 2.577 22.56 14.098 22.56 27.471 0 15.463-12.537 28-28 28s-28-12.538-28-28a28.012 28.012 0 0 1 17.478-25.955l.191-13.121-19.012-9.051a7.996 7.996 0 0 1-4.554-7.492l-.749-44.94a302.62 302.62 0 0 1-61.259 39.59v60.592l13.07 17.457a28.048 28.048 0 0 1 6.543-.769c15.462 0 28 12.537 28 28s-12.537 28-28 28-28-12.538-28-28a27.9 27.9 0 0 1 7.588-19.164l-13.575-18.132a7.936 7.936 0 0 1-1.594-4.781h-.031v-55.987a300.222 300.222 0 0 1-78.389 20.773v58.382l12.152 16.23a27.952 27.952 0 0 1 9.462-1.64c15.462 0 28 12.537 28 28s-12.537 28-28 28-28-12.538-28-28a27.877 27.877 0 0 1 5.693-16.924l-13.682-18.274a7.936 7.936 0 0 1-1.594-4.781h-.031v-59.439c-7.17.509-14.406.776-21.706.776s-14.536-.267-21.706-.776v59.439h-.031a7.936 7.936 0 0 1-1.594 4.781l-13.682 18.274A27.877 27.877 0 0 1 224.681 484c0 15.463-12.537 28-28 28s-28-12.538-28-28 12.537-28 28-28c3.321 0 6.506.579 9.462 1.64l12.152-16.23v-58.382a300.172 300.172 0 0 1-78.389-20.773v55.987h-.031a7.93 7.93 0 0 1-1.594 4.781l-13.575 18.132a27.902 27.902 0 0 1 7.588 19.164c0 15.463-12.537 28-28 28s-28-12.538-28-28 12.537-28 28-28c2.253 0 4.444.267 6.543.769l13.07-17.457v-60.592a302.72 302.72 0 0 1-61.292-39.618l-.717 44.937a7.997 7.997 0 0 1-4.554 7.523l-19.012 9.051.191 13.121A28.013 28.013 0 0 1 56 416.008c0 15.463-12.537 28-28 28s-28-12.538-28-28c0-13.373 9.475-24.894 22.56-27.471l-.241-16.536a7.969 7.969 0 0 1 4.542-7.29l-.011-.022 19.272-9.175 1.001-53.923A304.112 304.112 0 0 1 8 256a303.977 303.977 0 0 1 39.488-45.939l-1.308-53.547-19.33-9.203.011-.022a7.97 7.97 0 0 1-4.542-7.29l.241-16.536C9.475 120.886 0 109.365 0 95.992c0-15.462 12.537-28 28-28 15.462 0 28 12.537 28 28a28.011 28.011 0 0 1-17.478 25.955l-.191 13.12 19.012 9.051a7.996 7.996 0 0 1 4.558 7.345l.946 44.922a302.77 302.77 0 0 1 61.312-39.549l-.207-60.404-13.118-17.521c-2.099.503-4.29.769-6.543.769-15.463 0-28-12.538-28-28s12.537-28 28-28 28 12.537 28 28a27.896 27.896 0 0 1-7.588 19.164l13.575 18.132a7.939 7.939 0 0 1 1.594 4.772l.183 55.933a300.254 300.254 0 0 1 78.237-20.71V70.59l-12.151-16.23a27.956 27.956 0 0 1-9.462 1.64c-15.463 0-28-12.538-28-28s12.537-28 28-28c15.462 0 28 12.537 28 28a27.877 27.877 0 0 1-5.693 16.924l13.681 18.274a7.936 7.936 0 0 1 1.594 4.781h.031v59.439a307.13 307.13 0 0 1 21.708-.776zM163.548 256c0 51.061 41.392 92.452 92.452 92.452 51.06 0 92.452-41.391 92.452-92.452 0-51.06-41.392-92.452-92.452-92.452-51.06 0-92.452 41.392-92.452 92.452zm-16 0c0 59.888 48.564 108.452 108.452 108.452S364.452 315.888 364.452 256 315.888 147.548 256 147.548 147.548 196.112 147.548 256z" clip-rule="evenodd"/></svg>